<?xml version="1.0" standalone="no"?><!DOCTYPE svg PUBLIC "-//W3C//DTD SVG 1.1//EN" "http://www.w3.org/Graphics/SVG/1.1/DTD/svg11.dtd"><svg t="1516117109699" class="icon" style="" viewBox="0 0 1025 1024" version="1.1" xmlns="http://www.w3.org/2000/svg" p-id="2744" xmlns:xlink="http://www.w3.org/1999/xlink" width="200.1953125" height="200"><defs><style type="text/css"></style></defs><path d="M333.787794 221.683316l587.512363 0c47.837766 0 48.601189-66.276582 0-66.276582L333.787794 155.406734C286.716521 155.406734 285.186604 221.683316 333.787794 221.683316zM125.659842 128.878295c-33.777888 0-61.173109 27.420805-61.173109 61.248837 0 33.852593 27.396244 61.271351 61.173109 61.271351 33.780958 0 61.176179-27.418758 61.176179-61.271351C186.836021 156.2991 159.4408 128.878295 125.659842 128.878295zM921.300157 477.698154 333.787794 477.698154c-47.071273 0-48.601189 66.274535 0 66.274535l587.512363 0C969.13997 543.970642 969.901346 477.698154 921.300157 477.698154zM125.659842 451.170738c-33.777888 0-61.173109 27.420805-61.173109 61.247814 0 33.852593 27.396244 61.273398 61.173109 61.273398 33.780958 0 61.176179-27.420805 61.176179-61.273398C186.836021 478.591543 159.4408 451.170738 125.659842 451.170738zM921.300157 799.985481 333.787794 799.985481c-47.071273 0-48.601189 66.277605 0 66.277605l587.512363 0C969.13997 866.263086 969.901346 799.985481 921.300157 799.985481zM125.659842 773.460112c-33.777888 0-61.173109 27.420805-61.173109 61.248837 0 33.852593 27.396244 61.273398 61.173109 61.273398 33.780958 0 61.176179-27.420805 61.176179-61.273398C186.836021 800.880917 159.4408 773.460112 125.659842 773.460112z" p-id="2745" fill="#f4ea2a"></path></svg>