<?xml version="1.0" standalone="no"?><!DOCTYPE svg PUBLIC "-//W3C//DTD SVG 1.1//EN" "http://www.w3.org/Graphics/SVG/1.1/DTD/svg11.dtd"><svg t="1516117052308" class="icon" style="" viewBox="0 0 1024 1024" version="1.1" xmlns="http://www.w3.org/2000/svg" p-id="2011" xmlns:xlink="http://www.w3.org/1999/xlink" width="200" height="200"><defs><style type="text/css"></style></defs><path d="M839.951729 939.933349 185.021435 939.933349 185.021435 491.224838 214.65229 491.224838 214.65229 910.285099 810.285059 910.285099 810.285059 491.224838 839.951729 491.224838Z" p-id="2012" fill="#f4ea2a"></path><path d="M102.795713 526.312984 81.954035 505.234923 512.495792 80.096223 942.999686 505.234923 922.179498 526.312984 512.495792 121.776508Z" p-id="2013" fill="#f4ea2a"></path><path d="M645.356752 925.116899l-29.66667 0L615.690082 599.693248c0-19.97903-16.262382-36.241412-36.222993-36.241412L445.488679 563.451836c-19.980054 0-36.242436 16.262382-36.242436 36.241412l0 325.423651-29.612435 0L379.633808 599.693248c0-36.31509 29.521361-65.872267 65.853847-65.872267l133.978411 0c36.33351 0 65.890686 29.557176 65.890686 65.872267L645.356752 925.116899z" p-id="2014" fill="#f4ea2a"></path></svg>