<?xml version="1.0" standalone="no"?><!DOCTYPE svg PUBLIC "-//W3C//DTD SVG 1.1//EN" "http://www.w3.org/Graphics/SVG/1.1/DTD/svg11.dtd"><svg t="1516117167670" class="icon" style="" viewBox="0 0 1024 1024" version="1.1" xmlns="http://www.w3.org/2000/svg" p-id="4201" xmlns:xlink="http://www.w3.org/1999/xlink" width="200" height="200"><defs><style type="text/css"></style></defs><path d="M512 564.471172c-118.430897 0-214.686897-97.350621-214.686897-217.052689 0-119.666759 96.29131-217.017379 214.686897-217.01738 118.360276 0 214.686897 97.350621 214.686897 217.01738 0 119.702069-96.326621 217.05269-214.686897 217.052689z m0-393.745655c-96.150069 0-174.362483 79.271724-174.362483 176.692966 0 97.456552 78.212414 176.692966 174.362483 176.692965s174.362483-79.271724 174.362483-176.692965c0-97.421241-78.212414-176.692966-174.362483-176.692966z" fill="#f4ea2a" p-id="4202"></path><path d="M837.172966 893.598897a20.162207 20.162207 0 0 1-20.126897-20.162207 310.23669 310.23669 0 0 0-110.768552-238.274207 20.197517 20.197517 0 0 1 25.953104-30.896552 350.137379 350.137379 0 0 1 125.104551 269.170759 20.232828 20.232828 0 0 1-20.162206 20.162207z m-650.345932 0a20.162207 20.162207 0 0 1-20.126896-20.162207c0-192.617931 154.906483-349.325241 345.299862-349.325242a20.162207 20.162207 0 0 1 0 40.359724c-168.218483 0-305.046069 138.593103-305.046069 308.965518a20.162207 20.162207 0 0 1-20.126897 20.162207z" fill="#f4ea2a" p-id="4203"></path></svg>